<svg xmlns="http://www.w3.org/2000/svg" width="512" height="192" viewBox="0 0 512 192" xml:space="preserve"><path fill="#788B95" d="M494.145 97.096h-4.379v-7.665h4.379c1.64 0 2.735 0 3.284 1.096 1.097.546 1.097 1.642 1.097 2.738s0 2.187-1.097 2.735c-.549.548-1.645 1.096-3.284 1.096zm0-12.045h-9.307v22.443h4.928v-6.566h4.379c2.192 0 3.832 0 5.472-.549 1.096-.548 2.191-1.644 3.288-2.735C503.452 96 504 94.903 504 93.265c0-1.645-.548-3.286-1.096-4.382-1.097-1.094-2.192-2.19-3.288-2.738-1.639-.545-3.279-1.094-5.471-1.094zm-22.446 22.443h5.472V85.051h-5.472v22.443zm-12.59-22.443v8.757h-9.854v-8.757h-5.477v22.443h5.477v-9.302h9.854v9.302h5.471V85.051h-5.471zm-30.661 22.443c2.192 0 3.831 0 4.928-.543 1.644-.549 2.735-1.645 3.288-2.735 1.091-1.096 1.091-2.192 1.091-3.288 0-1.64 0-2.735-1.091-3.832-.553-.548-1.645-1.096-2.741-1.645-1.091-.548-2.187-1.091-4.379-1.091-1.64-.553-2.735-1.096-3.288-1.096-1.092-.549-1.092-1.097-1.092-1.645 0-1.094 0-1.642.549-2.189 1.096-.548 2.191-.548 3.283-.548 2.188 0 4.38.548 6.571 1.644l1.097-3.834c-.553-.548-2.192-1.093-3.288-1.642-1.64 0-2.735-.548-4.38-.548-1.644 0-3.283.548-4.928 1.097-1.644.545-2.735 1.641-3.283 2.737-.549 1.094-1.096 2.189-1.096 3.283 0 1.645.547 2.74 1.096 3.831 1.096.549 1.64 1.097 2.735 1.645s2.735 1.097 4.384 1.097c1.092.543 2.188.543 2.736 1.096.543 0 1.096 0 1.639.543 0 .548.553.548.553 1.097 0 1.096-.553 1.64-1.096 2.192-.553 0-1.645.543-3.288.543-1.096 0-2.735-.543-3.832-.543-1.639-.553-2.735-1.097-3.283-1.646l-2.188 3.832c1.091.549 2.735 1.096 4.375 1.645 1.644.543 3.289.543 4.928.543zm-19.157-14.229c0 1.096-.553 2.187-1.097 2.735-1.096.548-2.192 1.096-3.288 1.096h-4.375v-7.665h4.375c1.096 0 2.192 0 3.288 1.096.544.545 1.097 1.641 1.097 2.738zm5.471 14.229-4.928-7.115c1.645-1.091 2.735-1.644 3.831-2.735.553-1.644 1.097-2.74 1.097-4.379 0-1.645-.544-3.286-1.097-4.382-1.096-1.094-2.187-2.19-3.831-2.738-1.096-.545-2.735-1.094-4.928-1.094h-9.855v22.443h5.48v-6.566h4.928l3.832 6.566h5.471zm-38.324-4.374v-4.928h10.407v-4.385h-10.407V89.43h12.047v-4.38h-16.974v22.443h16.974v-4.374h-12.047zm-28.465 0V89.431h4.928c2.188 0 3.832.548 4.924 1.642 1.647 1.096 2.191 2.735 2.191 4.928s-.544 3.831-2.191 5.475c-1.092 1.093-2.735 1.646-4.924 1.646h-4.928zm-4.928 4.374h9.855c2.735 0 4.924-.543 6.571-1.639 1.64-1.097 3.279-2.192 4.376-3.832 1.095-1.645 1.644-3.831 1.644-6.023s-.549-3.832-1.644-5.474c-1.097-1.644-2.736-3.286-4.376-3.834-1.647-1.093-3.836-1.642-6.571-1.642h-9.855v22.444zm-20.801-8.759 3.283-8.757 3.831 8.757h-7.114zm10.399 8.759h5.476l-9.855-22.443h-4.923l-9.854 22.443h4.928l2.187-4.927h10.403l1.638 4.927zm-35.584-4.374v-4.928h10.403v-4.385h-10.403V89.43h11.499v-4.38h-16.975v22.443h17.518v-4.374h-12.042zm-26.826 4.374h16.422v-4.374h-10.951V85.051h-5.471v22.443z"/><path fill="#B42426" d="M429.544 51.657v13.138l-10.951-13.138h-4.375v21.896h4.928V60.416l11.495 13.138h3.831V51.657h-4.928zm-36.132 13.686 3.284-8.759 3.835 8.759h-7.119zm10.399 8.211h5.48l-9.855-21.896h-4.928l-9.855 21.896h4.928l2.192-4.379h10.398l1.64 4.379zm-31.748.549c2.188 0 3.831-.549 5.471-1.097 1.645-.548 2.74-1.642 3.831-2.735l-3.278-3.285c-1.648 1.642-3.288 2.737-5.48 2.737-1.64 0-2.735-.548-3.831-1.096s-2.188-1.094-2.736-2.19c-.547-1.094-.547-2.189-.547-3.831 0-1.096 0-2.737.547-3.834.549-1.094 1.641-1.642 2.736-2.188 1.096-.548 2.191-1.096 3.831-1.096 2.192 0 3.832 1.096 5.48 2.737l3.278-3.285c-1.091-1.094-2.187-2.19-3.831-2.738-1.64-.545-3.283-1.094-5.471-1.094-2.192 0-4.384.549-6.024 1.642-1.639 1.097-3.287 2.19-4.379 3.834-1.096 1.642-1.644 3.832-1.644 6.021s.548 4.38 1.644 6.021c1.092 1.644 2.74 3.285 4.379 3.831 1.64 1.097 3.831 1.646 6.024 1.646zm-23.542-.549h5.471V51.657h-5.471v21.897zM337.027 59.32c0 1.644-.553 2.189-1.097 3.285-1.096.548-2.192 1.094-3.831 1.094h-3.837v-8.211h3.837c1.639 0 2.735.548 3.831 1.096.545.546 1.097 1.642 1.097 2.736zm5.471 14.234-4.928-7.117c1.644-.548 2.735-1.642 3.288-2.737 1.091-1.094 1.64-2.735 1.64-4.379 0-1.643-.549-2.736-1.64-3.832-.553-1.642-1.645-2.189-3.288-2.738-1.096-1.093-3.284-1.093-4.928-1.093h-9.855v21.896h5.476v-6.021h4.38l4.385 6.021h5.47zm-25.182-18.066v-3.831h-16.975v21.896h4.928v-7.665h10.402V61.51H305.27v-6.021h12.046zm-37.775 9.855 3.282-8.759 3.832 8.759h-7.114zm10.402 8.211h5.471l-9.854-21.896h-4.928l-9.851 21.896h4.923l2.192-4.379H288.3l1.643 4.379zM36.467 51.108h25.731L79.716 96H53.987z"/><path fill="#788B95" d="m97.236 140.347-13.14-33.396H21.139L8 140.347h25.183l4.928-10.951h29.014l4.928 10.951z"/><path fill="#B42426" d="M224.794 51.108h24.088v45.439h-24.088z"/><path fill="#788B95" d="M105.996 140.347v-33.396h23.541v11.494h42.153v21.902z"/><path fill="#B42426" d="M105.996 51.108h23.541v45.439h-23.541z"/><path fill="#788B95" d="M213.846 140.347c-18.068 0-32.849-13.142-33.944-31.209l-.546-2.187h22.994l.545 1.64c1.096 4.928 5.476 8.759 10.951 8.759 6.021 0 10.401-3.831 11.497-8.759v-1.64h22.992v2.187c-1.095 18.067-15.878 31.209-34.489 31.209z"/><path fill="#B42426" d="M179.355 51.108h23.539v45.439h-23.539z"/><path fill="#788B95" d="M504 118.445h-4.928l-6.023 9.855-6.023-9.855h-5.471l8.759 14.234v7.667h4.928v-7.667L504 118.445zm-39.42 21.902h4.928v-18.069h7.119v-3.832h-19.162v3.832h7.115v18.069zm-18.613 0h4.927v-21.901h-4.927v21.901zm-16.423.545c1.64 0 3.288-.545 4.928-1.097 1.64-.544 2.192-1.092 3.283-2.188.549-1.096 1.096-2.187 1.096-3.831 0-1.097-.547-2.188-1.096-3.283-1.091-1.097-2.188-1.645-2.735-2.192-1.097 0-2.74-.549-4.379-1.096-1.645 0-2.736-.544-3.832-1.097-.553 0-1.096-.543-1.096-1.639 0-.549.543-1.097 1.096-1.645.544-.548 1.64-.548 3.283-.548 2.188 0 3.831.548 6.02 1.644l1.644-3.832c-1.091-1.096-2.188-1.096-3.832-1.644-1.091-.543-2.739-.543-3.831-.543-2.188 0-3.836.543-4.928 1.091-1.644.549-2.739 1.096-3.283 2.188-1.096 1.096-1.096 2.191-1.096 3.835 0 1.092.548 2.735 1.096 3.284.544 1.096 1.64 1.64 2.735 2.192 1.097 0 2.736.543 4.38 1.096 1.096 0 1.645.544 2.188.544 1.096.547 1.096.547 1.648 1.096.544 0 .544.548.544 1.096 0 .544 0 1.097-1.097 1.64-.543.548-1.639.548-2.735.548-1.64 0-2.735 0-4.38-.548-1.096-.543-2.187-1.096-3.283-1.64l-1.645 3.832c1.097 1.095 2.188 1.639 3.832 2.19 1.644.002 3.284.547 5.475.547zm-20.806-14.784c0 1.644 0 2.192-1.091 3.288-.549.544-1.646.544-3.284.544h-4.385v-7.663h4.385c1.639 0 2.735.548 3.284 1.096 1.091.548 1.091 1.644 1.091 2.735zm6.024 14.239-4.928-7.118c1.096-.549 2.192-1.64 3.288-2.735.543-1.097 1.096-2.741 1.096-4.385 0-1.639-.553-2.735-1.096-3.831-1.096-1.64-2.192-2.188-3.288-2.735-1.64-1.097-3.283-1.097-5.471-1.097h-9.313v21.901h4.928v-6.022h4.928l4.385 6.022h5.471zm-39.964-3.835v-5.476h10.398v-3.831h-10.398v-4.928h12.047v-3.832H369.87v21.901h16.975v-3.835h-12.047zm-15.878-18.067-7.115 15.879-6.571-15.879h-5.471l9.302 21.901h4.928l9.855-21.901h-4.928zm-30.657 21.902h5.476v-21.901h-5.476v21.901zm-13.687-21.902v13.144l-10.946-13.144h-4.384v21.901h4.928v-13.142l10.951 13.142h4.379v-21.901h-4.928zm-33.944 22.447c2.74 0 5.48-1.097 7.119-2.735 1.64-1.645 2.735-4.38 2.735-7.663v-12.048h-4.927v12.048c0 2.187-.544 3.831-1.64 4.375-.548 1.096-1.64 1.644-3.288 1.644-3.279 0-4.928-2.188-4.928-6.019v-12.048h-5.471v12.048c0 3.283 1.096 6.019 2.735 7.663 1.646 1.638 4.386 2.735 7.665 2.735z"/></svg>