<svg width="74" height="52" viewBox="0 0 74 52" fill="none" xmlns="http://www.w3.org/2000/svg">
<g clip-path="url(#clip0_16746_2194)">
<path d="M27.7442 37.5351H18.9209C18.8284 37.1404 18.9187 36.7346 18.8618 36.2954C18.7548 36.3288 18.6522 36.3556 18.5541 36.3935C16.9174 37.0178 15.2272 37.4281 13.4724 37.3846C8.62037 37.2653 4.77956 35.2418 2.09935 31.1557C0.800497 29.1745 0.110376 26.9771 0.0133806 24.6057C-0.144935 20.7247 1.06807 17.3354 3.76723 14.5315C5.81641 12.4031 8.34053 11.1177 11.2538 10.616C13.7255 10.1901 16.127 10.4755 18.4627 11.3696C18.5574 11.4053 18.6522 11.441 18.7492 11.4711C18.7693 11.4778 18.796 11.4655 18.8518 11.4566V10.4231H27.7442V37.534V37.5351ZM18.8796 23.9267C18.8674 20.9589 16.5049 18.5217 13.5895 18.4905C10.5179 18.4581 8.11867 20.7827 8.0384 23.7784C7.95924 26.7061 10.3853 29.2671 13.2661 29.3273C16.331 29.3908 18.8083 27.0072 18.8796 23.9267Z" fill="black"/>
<path d="M52.1046 31.7689C50.0421 29.7063 48.0353 27.6995 46.0273 25.6916C48.5504 23.1697 51.0957 20.6232 53.68 18.04C51.1012 15.4468 48.5481 12.8792 46.0329 10.3495C48.0487 8.33376 50.051 6.3314 52.0801 4.30229C54.5842 6.76844 57.1484 9.29256 59.7428 11.8479C62.3126 9.27807 64.8724 6.71827 67.4088 4.18188C69.4502 6.22326 71.4748 8.24791 73.5229 10.296C70.991 12.8279 68.439 15.3799 65.8725 17.9475C68.4367 20.5519 70.9798 23.1351 73.4906 25.6849C71.4782 27.6973 69.4725 29.703 67.4311 31.7443C64.9114 29.2392 62.3349 26.6771 59.7573 24.1151C57.193 26.6794 54.6388 29.2336 52.1046 31.7677V31.7689Z" fill="black"/>
<path d="M41.9624 37.5341H33.1436V3.94673C36.0635 2.64007 38.9946 1.32784 41.9624 0V37.5341Z" fill="black"/>
<path d="M6.48533 50.9753L3.84637 44.3539H5.35037L6.73172 47.9383C6.80754 48.1334 6.8722 48.3062 6.92571 48.4534C6.97923 48.6016 7.02606 48.741 7.06731 48.8692C7.10856 48.9985 7.14758 49.1245 7.18549 49.2472C7.22339 49.3698 7.2613 49.5047 7.29921 49.6496L7.02494 49.6586C7.07511 49.4635 7.12417 49.2817 7.17099 49.1145C7.21893 48.9473 7.27468 48.7711 7.34157 48.5849C7.40735 48.3987 7.48762 48.1824 7.58239 47.9372L8.88793 44.3528H10.383L7.7251 50.9741H6.48645L6.48533 50.9753Z" fill="black"/>
<path d="M13.6173 50.9751V44.3538H18.0914V45.6024H15.0076V49.7264H18.1572V50.9751H13.6162H13.6173ZM14.2796 48.2035V46.9927H17.6376V48.2035H14.2796Z" fill="black"/>
<path d="M21.8932 50.9751V44.3538H23.1608L26.821 49.3006H26.5557C26.53 49.1054 26.5089 48.9148 26.4899 48.7286C26.4709 48.5424 26.4531 48.354 26.4375 48.1611C26.4219 47.9694 26.4096 47.7698 26.3996 47.5658C26.3896 47.3606 26.3818 47.1432 26.3762 46.9136C26.3695 46.6839 26.3673 46.433 26.3673 46.1621V44.3549H27.7575V50.9762H26.4709L22.7349 45.9815L23.0939 45.9904C23.1251 46.3182 23.1519 46.5969 23.1742 46.8277C23.1965 47.0585 23.2155 47.2581 23.2311 47.4286C23.2467 47.5992 23.2578 47.7475 23.2645 47.8735C23.2712 47.9995 23.2757 48.1199 23.279 48.2325C23.2823 48.3451 23.2835 48.4655 23.2835 48.5915V50.9751H21.8932Z" fill="black"/>
<path d="M33.1302 50.9751L33.1347 44.3538H34.5573L34.5495 50.9751H33.1302Z" fill="black"/>
<path d="M42.7027 51.0321C42.1665 51.0321 41.6893 50.9206 41.269 50.6965C40.8498 50.4724 40.5198 50.1636 40.2812 49.7701C40.0415 49.3765 39.9222 48.9294 39.9222 48.4311V44.345H41.3504V48.3463C41.3504 48.6117 41.4106 48.8491 41.5299 49.061C41.6492 49.2728 41.8119 49.4412 42.0171 49.5671C42.2222 49.6931 42.4508 49.7567 42.7027 49.7567C42.9547 49.7567 43.1955 49.6942 43.4073 49.5671C43.6192 49.4412 43.7853 49.2728 43.909 49.061C44.0317 48.8503 44.093 48.6117 44.093 48.3463V44.345H45.4744V48.4311C45.4744 48.9294 45.3562 49.3754 45.1198 49.7701C44.8835 50.1647 44.5535 50.4736 44.1309 50.6965C43.7084 50.9206 43.2323 51.0321 42.7027 51.0321Z" fill="black"/>
<path d="M49.4099 50.9751V44.3538H52.3421C52.7513 44.3538 53.1236 44.4474 53.4581 44.6325C53.7926 44.8187 54.0557 45.0695 54.2474 45.3839C54.4392 45.6994 54.5362 46.0584 54.5362 46.462C54.5362 46.8656 54.4403 47.2202 54.2474 47.5446C54.0546 47.869 53.7915 48.1266 53.4581 48.3161C53.1236 48.5056 52.7513 48.6004 52.3421 48.6004H50.7812V50.9751H49.4099ZM50.7812 47.4465H52.2763C52.4469 47.4465 52.5963 47.4075 52.7256 47.3283C52.8549 47.2491 52.9542 47.1388 53.0233 46.9972C53.0924 46.8556 53.127 46.6962 53.127 46.52C53.127 46.3305 53.0857 46.1666 53.0043 46.0283C52.9218 45.8901 52.8025 45.7808 52.6453 45.7017C52.4881 45.6225 52.3042 45.5835 52.0968 45.5835H50.7823V47.4465H50.7812ZM53.1649 50.9751L51.4814 47.9861L52.9386 47.7497L54.8116 50.9852L53.166 50.9751H53.1649Z" fill="black"/>
<path d="M58.3012 50.9751V44.3538H62.7753V45.6024H59.6915V49.7264H62.8411V50.9751H58.3001H58.3012ZM58.9635 48.2035V46.9927H62.3215V48.2035H58.9635Z" fill="black"/>
<path d="M68.7244 51.0701C68.3141 51.0701 67.9406 51.0199 67.6039 50.9184C67.2661 50.8181 66.9673 50.6698 66.7053 50.4736C66.4433 50.2785 66.2092 50.0421 66.0007 49.7645L66.8904 48.7522C67.1992 49.1814 67.5069 49.4724 67.8124 49.6274C68.1179 49.7824 68.4512 49.8593 68.8102 49.8593C69.0053 49.8593 69.1804 49.8314 69.3353 49.7746C69.4892 49.7177 69.6107 49.6408 69.6999 49.5427C69.788 49.4445 69.8326 49.3264 69.8326 49.1881C69.8326 49.0878 69.8103 48.9941 69.7668 48.9094C69.7222 48.8247 69.6598 48.7489 69.5773 48.682C69.4948 48.6151 69.3978 48.556 69.284 48.5025C69.1703 48.4489 69.0443 48.4021 68.9061 48.3609C68.7667 48.3196 68.6162 48.2873 68.4523 48.2616C68.0989 48.1791 67.7901 48.0799 67.5258 47.964C67.2605 47.8469 67.0398 47.702 66.8636 47.5292C66.6874 47.3563 66.5559 47.159 66.4712 46.9383C66.3864 46.7175 66.3441 46.4689 66.3441 46.1913C66.3441 45.9137 66.4065 45.6439 66.5336 45.4019C66.6596 45.1589 66.8346 44.9493 67.0587 44.7731C67.2828 44.597 67.5415 44.461 67.8347 44.3662C68.1279 44.2714 68.4389 44.2246 68.7667 44.2246C69.1703 44.2246 69.5237 44.2692 69.8259 44.3573C70.1291 44.4454 70.3922 44.5769 70.6152 44.7497C70.8393 44.9236 71.0266 45.1332 71.1782 45.3785L70.2796 46.2481C70.147 46.072 70.0043 45.9237 69.8493 45.8033C69.6943 45.684 69.5282 45.5937 69.3476 45.5335C69.1681 45.4733 68.983 45.4432 68.7946 45.4432C68.5861 45.4432 68.4066 45.4699 68.255 45.5235C68.1034 45.577 67.9852 45.6561 67.9005 45.7598C67.8157 45.8635 67.7734 45.985 67.7734 46.1244C67.7734 46.2381 67.8012 46.3385 67.8581 46.4265C67.915 46.5146 67.9963 46.5926 68.1045 46.6584C68.2115 46.7242 68.3408 46.7833 68.4925 46.8335C68.6441 46.8836 68.8113 46.9282 68.9942 46.9661C69.3409 47.0353 69.6531 47.1267 69.9307 47.2404C70.2083 47.3541 70.4458 47.4913 70.6453 47.6518C70.8438 47.8123 70.9965 48.0019 71.1047 48.2193C71.2117 48.4367 71.2652 48.6808 71.2652 48.9529C71.2652 49.4011 71.1582 49.7824 70.9441 50.0979C70.7301 50.4134 70.4335 50.6542 70.0544 50.8214C69.6765 50.9887 69.235 51.0723 68.7299 51.0723L68.7244 51.0701Z" fill="black"/>
<path d="M30.5336 46.6785L37.155 46.6829V48.1055L30.5336 48.0977V46.6785Z" fill="black"/>
</g>
<defs>
<clipPath id="clip0_16746_2194">
<rect width="73.5229" height="51.07" fill="white"/>
</clipPath>
</defs>
</svg>
