<?xml version="1.0" encoding="UTF-8"?>
<svg xmlns="http://www.w3.org/2000/svg" width="207" height="91" viewBox="0 0 207 91" fill="none">
  <g opacity="0.1">
    <path d="M26.4785 70.4891C28.7458 72.0663 29.0415 74.5307 29.633 76.7979C29.8301 77.2908 29.4358 78.2766 28.943 78.6709C27.4643 79.9524 27.5629 81.3324 28.6472 82.8111C29.4358 83.8954 30.1259 84.8812 30.323 86.2612C30.4216 86.9513 31.2102 87.4441 31.6045 88.0356C31.9988 88.6271 32.3931 89.3171 32.9846 89.81C33.3789 90.2043 33.8718 90.5 34.3646 90.5C36.139 90.4014 37.8148 90.3028 39.5892 90.0071C42.0536 89.5142 43.9265 88.2327 45.4052 86.3598C45.7009 85.9655 46.2924 85.7683 46.8838 85.5712C47.9682 85.1769 48.3625 84.684 47.8696 83.6982C47.5738 83.0082 47.771 82.7125 48.3625 82.4168C49.4468 81.8253 50.5311 81.2338 51.714 80.741C52.897 80.2481 53.587 79.6566 53.587 78.2766C53.587 77.0936 53.9813 76.0093 53.3898 74.7278C52.897 73.6435 53.2913 72.362 54.0799 71.1791C55.3614 69.3061 57.2343 68.2218 59.1073 66.9403C62.0645 64.9688 64.0361 62.2087 65.4161 59.0542C65.5147 58.7585 65.4161 58.2656 65.4161 57.9699C65.0218 57.9699 64.6275 57.8713 64.2332 57.9699C62.7546 58.2656 61.2759 58.7585 59.7973 58.9556C59.403 59.0542 58.7129 58.5613 58.5158 58.167C57.8258 56.6884 56.4457 55.8012 55.5585 54.7169C54.3756 53.2382 52.6012 49.098 52.5027 48.8023C51.4183 46.7322 50.2354 44.6621 49.0525 42.6906C48.9539 42.4934 48.8553 42.1977 48.8553 41.902C49.0525 42.0991 49.1511 42.2963 49.4468 42.3949C51.5169 42.7892 51.8126 44.6621 52.897 45.845C53.9813 46.9294 54.1784 48.2108 54.7699 49.3938C55.2628 50.5767 57.6286 53.7311 57.8258 54.3226C57.9243 54.8154 59.2058 55.9984 59.2058 55.9984C59.2058 55.9984 60.1916 56.3927 61.6702 55.7026C62.5574 55.3083 62.5574 55.9984 63.5432 55.6041C65.4161 54.8154 67.2891 53.9283 69.0634 53.0411C69.6549 52.7453 70.2464 52.2525 70.7392 51.7596C71.5278 50.971 72.2179 50.1824 72.9079 49.3938C73.7951 48.3094 73.6965 47.4222 72.3165 46.8308C71.4293 46.4365 70.7392 47.0279 70.5421 46.0422C70.5421 46.0422 69.9506 45.6479 69.7535 45.845C68.9649 46.6336 69.2606 46.1408 67.9791 45.9436C67.5848 45.845 68.0777 46.7322 68.0777 46.6336C68.472 45.7464 65.4161 44.8593 65.0218 44.465C64.036 43.6763 63.346 42.7892 63.2474 41.6062C63.2474 41.3105 63.346 40.8176 63.5432 40.7191C63.8389 40.6205 64.3318 40.7191 64.6275 40.9162C64.9232 41.1134 65.1204 41.4091 65.4161 41.6062C66.6976 42.592 67.5848 43.1835 68.8663 44.0706C69.0634 44.1692 70.3449 44.9578 70.4435 44.9578C74.0908 46.9294 74.978 47.4222 78.0339 46.1407C78.4282 45.9436 77.9353 45.4507 78.3296 45.3521C79.6111 44.9578 79.4139 45.6479 80.3011 46.4365C81.6812 47.5208 81.7798 48.7037 81.6812 49.8866C82.4698 50.0838 83.2584 50.4781 83.9484 50.971C84.2442 48.8023 84.3427 46.6336 84.3427 44.3664C84.2442 25.9326 74.288 10.3576 59.7973 0.894304H59.6987C59.0087 1.38718 58.0229 1.68291 57.0372 1.88007C57.1357 1.97864 57.0372 2.17579 56.84 2.37295C57.1357 2.5701 57.53 2.66867 57.8258 2.76725C58.0229 2.86583 58.3186 2.86583 58.5158 2.9644C58.3186 3.16156 58.2201 3.35871 58.0229 3.45728C56.6428 4.14732 56.15 4.14732 55.0656 3.16156C54.8685 3.06298 54.5728 2.86583 54.3756 2.9644C54.1784 2.66867 53.9813 2.86583 53.9813 3.16156C53.8827 3.45728 53.9813 3.85159 53.9813 4.14732C53.3898 4.04874 52.4041 4.24589 52.2069 3.85159C51.5169 2.86583 50.4326 2.76725 49.4468 2.5701C47.2781 2.07722 44.9123 1.88007 42.8422 1.09146C41.265 0.499999 39.6878 0.5 38.1105 0.5C35.7447 0.598576 33.4775 0.795729 31.4074 2.27437C30.2244 3.16156 28.8444 3.75301 27.76 4.83735C26.9714 5.62596 25.5914 6.02026 24.507 6.61172C24.2113 6.7103 23.9156 6.80887 23.6198 7.00602C22.2398 7.69606 21.7469 9.76616 22.7327 10.7519C23.127 11.1462 24.0141 11.2448 24.6056 11.2448C25.0985 11.2448 25.6899 10.8505 26.0842 10.4562C26.7743 9.96331 27.07 10.0619 27.2672 10.7519C27.4643 11.2448 27.76 11.6391 28.0558 12.0334C28.2529 12.5263 28.4501 12.9206 27.8586 13.3149C27.5629 13.512 27.6615 14.1035 27.6615 14.4978C27.6615 14.5964 28.1543 14.7935 28.1543 14.695C29.0415 13.8078 30.323 13.9064 31.3088 13.3149C31.9002 13.0192 32.5903 12.822 32.2945 11.9348C31.9988 11.2448 32.4917 10.8505 33.0831 10.5548C34.2661 9.86473 34.2661 9.66758 33.1817 8.97755C32.196 8.28751 32.2945 7.40033 33.3789 6.80887C33.8718 6.51314 34.4632 6.41457 34.9561 6.11884C35.3504 5.92169 35.7447 5.62596 35.9419 5.23165C36.4347 4.44305 37.8148 4.04874 38.6034 4.54162C38.702 4.6402 38.702 5.13308 38.6034 5.23165C38.1105 5.62596 37.6177 6.02026 37.0262 6.21742C35.6461 6.7103 35.7447 7.69606 36.139 8.48467C36.5333 9.37185 37.6177 9.47043 38.6034 9.47043C39.6878 9.37185 40.7721 9.1747 41.8564 9.07612C42.0536 9.07612 42.3493 9.1747 42.5465 9.27328C42.3493 9.47043 42.2507 9.76616 41.955 9.86473C41.4621 9.96331 41.0678 9.86473 40.5749 9.96331C39.9835 9.96331 39.392 9.96331 38.8991 10.0619C38.3077 10.1605 38.012 10.5548 38.5048 11.1462C38.702 11.3434 38.6034 11.7377 38.702 12.0334C38.4063 11.9348 38.1105 11.9348 37.8148 11.8363C36.829 11.3434 36.5333 12.0334 36.2376 12.7234C35.9419 13.2163 35.8433 13.8078 35.449 14.3007C35.0547 14.8921 34.5618 15.2864 33.7732 14.7935C33.4775 14.695 32.9846 14.695 32.6888 14.7935C31.1116 15.6807 29.3373 15.0893 27.6615 15.385C26.4785 15.5821 25.6899 14.5964 26.38 13.8078C26.9714 13.1177 26.2814 12.7234 26.38 12.2306C26.0842 12.2306 25.5914 12.132 25.3942 12.3291C24.9999 12.7234 24.507 13.2163 24.507 13.7092C24.4084 14.3992 24.9999 15.2864 24.7042 15.6807C24.4085 16.075 23.3241 16.075 22.6341 16.1736C22.3384 16.2722 22.0426 16.2722 21.944 16.4693C20.9583 17.6522 19.7754 18.5394 18.3953 19.2295C18.0996 19.4266 17.9024 19.8209 17.6067 19.9195C16.9167 20.1166 15.6352 20.1166 15.5366 20.4124C15.1423 21.5953 14.3537 21.1024 13.6637 21.1024C13.3679 21.1024 13.0722 21.3981 12.7765 21.4967C13.0722 21.6939 13.3679 22.0882 13.6637 22.1867C15.2409 22.6796 16.2266 24.3554 15.6352 25.6369C15.3394 26.3269 14.9451 26.6227 14.1565 26.6227C12.7765 26.5241 11.2978 26.4255 9.91776 26.4255C8.53769 26.4255 8.34054 26.7213 8.24196 28.0027C8.24196 28.8899 7.94624 29.8757 7.84766 30.7629C7.84766 31.4529 7.94624 32.1429 8.04481 32.7344C8.04481 32.833 8.14339 33.0301 8.24196 32.9315C9.52345 32.833 10.6078 34.0159 11.3964 33.9173C12.9736 33.6216 14.8466 33.7202 15.9309 32.2415C16.1281 31.9458 16.5224 31.4529 16.5224 31.1572C16.5224 29.9743 17.1138 29.2842 18.1982 28.8899C18.9868 28.5942 19.6768 28.2985 19.6768 27.3127C19.6768 27.017 20.4654 26.5241 20.7611 26.6227C22.2398 27.017 23.4227 26.7213 24.6056 25.8341C25.3942 25.2426 26.0842 25.6369 26.4785 26.3269C27.1686 27.707 28.5486 28.397 29.8301 29.0871C30.8159 29.6785 32.0974 30.1714 31.6045 31.6501C31.6045 31.7486 31.6045 31.8472 31.7031 31.9458C31.8017 31.9458 31.9988 31.8472 32.0974 31.7486C32.2945 31.3543 32.4917 30.96 32.4917 30.5657C32.3931 29.7771 32.6888 29.6785 33.3789 29.7771C33.576 29.7771 33.7732 29.7771 33.8718 29.6785C33.7732 29.4814 33.6746 29.2842 33.4775 29.1857C32.5903 28.7914 31.7031 28.397 30.9145 27.9042C30.5202 27.707 30.2244 27.3127 29.9287 27.017C29.5344 26.6227 29.1401 26.2284 28.8444 25.7355C28.6472 25.3412 28.2529 24.8483 28.4501 24.5526C28.7458 23.9611 29.1401 24.3554 29.633 24.6512C31.2102 25.6369 32.7874 26.5241 34.2661 27.5099C34.5618 27.707 34.9561 28.1013 34.8575 28.2985C34.7589 30.27 37.0262 31.0586 37.3219 32.833C37.4205 33.523 38.2091 33.4244 38.6034 32.7344C38.702 32.5372 38.8006 31.0586 38.702 30.8614C38.6034 30.5657 38.5048 29.9743 38.6034 29.8757C39.7863 28.9885 41.8564 30.3686 41.955 30.8614C42.1522 32.9315 43.9265 33.8187 46.0952 33.6216C47.4753 33.523 48.9539 33.9173 50.4326 33.523C50.6297 34.213 50.9254 34.9031 50.8269 35.5931C50.6297 36.5789 50.0382 37.3675 49.6439 38.3532C49.3482 39.0433 48.8553 39.1418 48.0667 39.1418C47.081 39.0433 46.0952 39.1418 45.1094 39.1418C44.2223 39.1418 43.3351 39.2404 42.645 39.0433C41.1664 38.4518 39.4906 38.649 38.2091 37.5646C37.4205 36.9732 36.0404 37.5646 35.6461 38.5504C34.9561 40.029 34.6604 40.1276 33.1817 39.339C32.6888 39.0433 32.2945 38.8461 31.9002 38.4518C31.0131 37.6632 30.0273 37.2689 28.7458 37.1703C27.1686 37.0717 26.8729 36.5789 27.07 35.1988C27.1686 34.6073 27.3657 33.9173 27.07 33.523C26.7743 33.1287 25.8871 32.833 25.2956 32.833C23.7184 32.833 22.0426 32.833 20.4654 33.1287C18.691 33.4244 16.9167 33.9173 15.3394 34.6073C14.2551 35.1002 13.2693 35.2974 12.185 34.9031C11.2978 34.5088 10.9035 34.7059 10.4106 35.396C10.0163 35.9874 9.42488 36.4803 8.83342 37.0717C7.94624 37.9589 7.2562 38.8461 7.15763 40.1276C7.05905 41.2119 6.36902 42.0005 5.1861 42.1977C3.90461 42.4934 3.21458 43.282 2.62312 44.2678C1.93309 45.5493 1.14448 46.8308 0.553024 48.1123C0.355872 48.6051 0.355872 49.3938 0.553024 49.9852C1.0459 51.661 1.24306 53.0411 0.15872 54.7169C-0.235585 55.3083 0.15872 56.8855 0.750177 57.3784C3.31316 59.2514 4.59465 62.1101 7.35478 63.6873C8.43912 64.2788 9.42488 64.5745 10.6078 64.1802C11.1992 63.983 11.8893 63.7859 12.4807 63.8844C14.058 64.3773 15.438 63.8845 16.8181 63.293C17.4095 62.9973 18.0996 62.8987 18.7896 62.8001C19.6768 62.603 20.4654 62.7015 21.0569 63.4901C21.6483 64.2788 22.3384 64.5745 23.4227 64.4759C25.5914 64.3773 26.2814 65.5602 25.3942 67.6303C25.1971 69.2076 25.0985 69.4047 26.4785 70.4891ZM43.7294 26.9184C42.5465 27.4113 42.4479 29.0871 41.1664 29.4814C41.0678 29.4814 43.3351 29.58 43.2365 29.58C43.3351 29.4814 43.4336 29.1857 43.5322 29.1857C44.2223 29.0871 42.9408 29.1857 42.5465 28.5942C42.1522 28.1999 43.5322 27.3127 43.7294 26.9184C44.1237 25.9326 44.7151 24.9469 45.3066 24.0597C45.7995 23.2711 46.5881 23.2711 47.2781 23.9611C47.6724 24.3554 47.9682 24.7497 48.3625 25.0455C48.9539 25.5383 50.2354 25.4398 50.6297 24.9469C50.7283 24.8483 50.7283 24.5526 50.6297 24.5526C50.334 24.3554 49.5454 24.2568 50.334 23.8625C50.9254 23.5668 51.5169 24.454 52.2069 24.3554C52.2069 24.6512 52.4041 24.1583 52.2069 24.3554C51.5169 24.9469 51.9112 25.3412 52.4041 25.6369C52.897 25.9326 53.4884 26.2284 54.0799 26.5241C54.3756 26.6227 53.4884 27.017 53.6856 27.2141C54.0799 27.707 53.9813 28.6928 54.3756 29.1857C53.7841 29.4814 54.9671 28.8899 54.3756 29.1857C54.1784 29.2842 53.9813 29.1857 53.7841 29.1857L53.6856 29.2842C52.6998 28.9885 44.9123 26.3269 43.7294 26.9184Z" fill="#585857"></path>
    <path d="M12.6779 19.5252C13.7622 18.8352 12.7765 17.6522 13.4665 16.9622C13.6637 16.7651 13.6637 16.5679 13.8608 16.3708C14.6494 15.6807 14.6494 15.385 13.7622 14.9907C12.875 14.4978 12.5793 13.7092 12.2836 12.822C12.0864 11.9348 12.875 11.7377 13.2693 11.3434C13.6637 11.0476 14.5508 10.3576 14.5508 11.7377C14.5508 11.8363 14.8466 11.9348 15.0437 11.9348C16.2266 11.9348 15.9309 12.4277 15.438 13.0192C15.3394 13.1177 15.3394 13.6106 15.438 13.7092C16.5224 14.7935 17.6067 15.7793 18.5925 16.8636C18.7896 17.0608 18.8882 17.4551 18.691 17.6523C18.3953 18.1451 18.001 18.9337 17.6067 19.0323C16.0295 19.2295 14.4523 19.328 12.6779 19.5252Z" fill="#585857"></path>
    <path d="M54.3756 84.1911C55.2628 82.7125 55.8542 81.1353 56.9386 79.9524C57.9243 78.868 59.5016 78.178 60.7831 77.2908C60.8816 77.1922 61.4731 77.2908 61.4731 77.488C61.5717 77.9808 61.8674 78.5723 61.6702 78.868C60.2902 81.1353 59.1073 83.5011 56.7414 85.0783C56.3471 85.374 55.5585 85.374 54.9671 85.2755C54.7699 85.2755 54.5728 84.684 54.3756 84.1911Z" fill="#585857"></path>
    <path d="M12.185 14.9907C11.8893 15.8779 11.8893 16.7651 11.3964 17.3565C10.9035 17.8494 9.91776 18.1451 9.12915 18.3423C8.932 18.4409 8.24197 18.0466 8.24197 17.8494C8.04481 16.8636 9.72061 14.695 10.8049 14.4978C11.3964 14.3007 11.9879 14.3992 12.185 14.9907Z" fill="#585857"></path>
  </g>
  <path d="M37.6177 22.6796H46.391C52.0098 22.6796 54.6713 25.5383 54.6713 30.8614V47.6194C54.6713 52.9425 52.0098 55.8012 46.391 55.8012H37.6177V22.6796ZM43.2365 27.5099V51.1681H46.391C48.1653 51.1681 49.2497 50.3795 49.2497 47.9151V30.6643C49.2497 28.1999 48.1653 27.4113 46.391 27.4113H43.2365V27.5099Z" fill="#39AA35"></path>
  <path d="M37.6177 22.6796H46.391C52.0098 22.6796 54.6713 25.5383 54.6713 30.8614V47.6194C54.6713 52.9425 52.0098 55.8012 46.391 55.8012H37.6177V22.6796ZM43.2365 27.5099V51.1681H46.391C48.1653 51.1681 49.2497 50.3795 49.2497 47.9151V30.6643C49.2497 28.1999 48.1653 27.4113 46.391 27.4113H43.2365V27.5099Z" stroke="#39AA35" stroke-width="1.24312" stroke-miterlimit="10"></path>
  <path d="M64.6276 22.5811H59.0088V55.8012H64.6276V22.5811Z" fill="#F8B132"></path>
  <path d="M64.6276 22.5811H59.0088V55.8012H64.6276V22.5811Z" stroke="#F8B132" stroke-width="1.24312" stroke-miterlimit="10"></path>
  <path d="M76.2595 22.5811C81.7797 22.5811 84.4413 25.5383 84.4413 30.6643V31.6501H79.2167V30.27C79.2167 27.9042 78.231 27.1156 76.4566 27.1156C74.6822 27.1156 73.6965 27.9042 73.6965 30.27C73.6965 32.4387 74.8794 34.1145 76.5552 35.5931C77.3438 36.3817 78.231 37.0717 79.2167 37.8604C81.0897 39.339 82.7655 41.1134 83.8498 43.3806C84.4413 44.5635 84.6384 45.845 84.6384 47.4222C84.6384 52.6468 81.7797 55.5055 76.358 55.5055C70.8378 55.5055 68.0776 52.5482 68.0776 47.4222V45.4507H73.3022V47.718C73.3022 50.0838 74.3865 50.8724 76.1609 50.8724C77.9352 50.8724 79.0196 50.0838 79.0196 47.718C79.0196 45.5493 77.8367 43.8735 76.1609 42.3949C75.3723 41.7048 74.4851 40.9162 73.5979 40.1276C71.725 38.649 69.9506 36.8746 68.9648 34.6073C68.3734 33.4244 68.1762 32.1429 68.1762 30.5657C68.0776 25.4398 70.8378 22.5811 76.2595 22.5811Z" fill="#1889C2"></path>
  <path d="M76.2595 22.5811C81.7797 22.5811 84.4413 25.5383 84.4413 30.6643V31.6501H79.2167V30.27C79.2167 27.9042 78.231 27.1156 76.4566 27.1156C74.6822 27.1156 73.6965 27.9042 73.6965 30.27C73.6965 32.4387 74.8794 34.1145 76.5552 35.5931C77.3438 36.3817 78.231 37.0717 79.2167 37.8604C81.0897 39.339 82.7655 41.1134 83.8498 43.3806C84.4413 44.5635 84.6384 45.845 84.6384 47.4222C84.6384 52.6468 81.7797 55.5055 76.358 55.5055C70.8378 55.5055 68.0776 52.5482 68.0776 47.4222V45.4507H73.3022V47.718C73.3022 50.0838 74.3865 50.8724 76.1609 50.8724C77.9352 50.8724 79.0196 50.0838 79.0196 47.718C79.0196 45.5493 77.8367 43.8735 76.1609 42.3949C75.3723 41.7048 74.4851 40.9162 73.5979 40.1276C71.725 38.649 69.9506 36.8746 68.9648 34.6073C68.3734 33.4244 68.1762 32.1429 68.1762 30.5657C68.0776 25.4398 70.8378 22.5811 76.2595 22.5811Z" stroke="#1889C2" stroke-width="1.24312" stroke-miterlimit="10"></path>
  <path d="M105.931 55.8012H100.312L99.326 49.7881H92.4257L91.4399 55.8012H86.314L92.0314 22.5811H100.213L105.931 55.8012ZM93.2143 45.2536H98.636L95.9744 28.4956L93.2143 45.2536Z" fill="#E42532"></path>
  <path d="M105.931 55.8012H100.312L99.326 49.7881H92.4257L91.4399 55.8012H86.314L92.0314 22.5811H100.213L105.931 55.8012ZM93.2143 45.2536H98.636L95.9744 28.4956L93.2143 45.2536Z" stroke="#E42532" stroke-width="1.24312" stroke-miterlimit="10"></path>
  <path d="M116.971 22.5811C122.787 22.5811 125.252 25.0455 125.252 30.1714V31.3543C125.252 34.8045 124.167 36.9732 121.604 38.0575C124.66 39.1418 125.744 41.6062 125.744 45.155V47.8165C125.744 52.9425 122.886 55.7026 117.267 55.7026H108.494V22.5811H116.971ZM114.211 27.3127V36.086H116.38C118.45 36.086 119.731 35.1988 119.731 32.5372V30.6643C119.731 28.1999 118.844 27.2141 116.873 27.2141H114.211V27.3127ZM114.211 40.8176V50.971H117.366C119.238 50.971 120.224 50.1824 120.224 47.718V44.8593C120.224 41.8034 119.238 40.8176 116.577 40.8176H114.211Z" fill="#FAB51F"></path>
  <path d="M116.971 22.5811C122.787 22.5811 125.252 25.0455 125.252 30.1714V31.3543C125.252 34.8045 124.167 36.9732 121.604 38.0575C124.66 39.1418 125.744 41.6062 125.744 45.155V47.8165C125.744 52.9425 122.886 55.7026 117.267 55.7026H108.494V22.5811H116.971ZM114.211 27.3127V36.086H116.38C118.45 36.086 119.731 35.1988 119.731 32.5372V30.6643C119.731 28.1999 118.844 27.2141 116.873 27.2141H114.211V27.3127ZM114.211 40.8176V50.971H117.366C119.238 50.971 120.224 50.1824 120.224 47.718V44.8593C120.224 41.8034 119.238 40.8176 116.577 40.8176H114.211Z" stroke="#FAB51F" stroke-width="1.24312" stroke-miterlimit="10"></path>
  <path d="M135.504 22.5811H129.885V55.8012H135.504V22.5811Z" fill="#04ABD5"></path>
  <path d="M135.504 22.5811H129.885V55.8012H135.504V22.5811Z" stroke="#04ABD5" stroke-width="1.24312" stroke-miterlimit="10"></path>
  <path d="M140.137 22.5811H145.756V51.0696H154.923V55.8012H140.137V22.5811Z" fill="#DC1E82"></path>
  <path d="M140.137 22.5811H145.756V51.0696H154.923V55.8012H140.137V22.5811Z" stroke="#DC1E82" stroke-width="1.24312" stroke-miterlimit="10"></path>
  <path d="M163.598 22.5811H157.979V55.8012H163.598V22.5811Z" fill="#ED6E2A"></path>
  <path d="M163.598 22.5811H157.979V55.8012H163.598V22.5811Z" stroke="#ED6E2A" stroke-width="1.24312" stroke-miterlimit="10"></path>
  <path d="M166.358 22.5811H183.609V27.3127H177.793V55.8012H172.272V27.3127H166.358V22.5811Z" fill="#6CB53D"></path>
  <path d="M166.358 22.5811H183.609V27.3127H177.793V55.8012H172.272V27.3127H166.358V22.5811Z" stroke="#6CB53D" stroke-width="1.24312" stroke-miterlimit="10"></path>
  <path d="M192.776 44.7607L185.777 22.5811H191.593L195.832 37.7618L200.071 22.5811H205.394L198.395 44.7607V55.8012H192.776V44.7607Z" fill="#808081"></path>
  <path d="M192.776 44.7607L185.777 22.5811H191.593L195.832 37.7618L200.071 22.5811H205.394L198.395 44.7607V55.8012H192.776V44.7607Z" stroke="#808081" stroke-width="1.24312" stroke-miterlimit="10"></path>
  <path d="M40.3775 58.3642C42.5462 58.3642 43.6305 59.5471 43.6305 61.7158V62.1101H41.5604V61.5186C41.5604 60.5329 41.1661 60.2371 40.4761 60.2371C39.7861 60.2371 39.3918 60.5329 39.3918 61.5186C39.3918 62.4058 39.8846 63.0958 40.5747 63.6873C40.8704 63.983 41.2647 64.2788 41.659 64.5745C42.349 65.1659 43.0391 65.9545 43.532 66.8417C43.7291 67.3346 43.8277 67.8275 43.8277 68.5175C43.8277 70.6862 42.6448 71.8691 40.4761 71.8691C38.3074 71.8691 37.1245 70.6862 37.1245 68.5175V67.7289H39.1946V68.7147C39.1946 69.7004 39.6875 69.9962 40.3775 69.9962C41.0676 69.9962 41.5604 69.7004 41.5604 68.7147C41.5604 67.8275 41.0676 67.1375 40.3775 66.546C40.0818 66.2503 39.6875 65.9546 39.3918 65.6588C38.6031 65.0674 37.9131 64.3773 37.5188 63.3916C37.3217 62.8987 37.2231 62.4058 37.2231 61.7158C37.1245 59.5471 38.2088 58.3642 40.3775 58.3642Z" fill="#464646"></path>
  <path d="M46.884 58.4628V68.7147C46.884 69.7004 47.3768 69.9962 48.0669 69.9962C48.7569 69.9962 49.2498 69.7004 49.2498 68.7147V58.4628H51.3199V68.6161C51.3199 70.7848 50.137 71.9677 47.9683 71.9677C45.7996 71.9677 44.6167 70.7848 44.6167 68.6161V58.4628H46.884Z" fill="#464646"></path>
  <path d="M57.4314 67.9261L58.91 58.4628H62.0644V71.7705H59.8958V62.2087L58.4171 71.7705H56.2485L54.5727 62.4058V71.7705H52.6997V58.4628H55.7556L57.4314 67.9261Z" fill="#464646"></path>
  <path d="M68.176 67.9261L69.7532 58.4628H72.8091V71.7705H70.739V62.2087L69.1618 71.7705H67.0917L65.4159 62.4058V71.7705H63.4443V58.4628H66.5002L68.176 67.9261Z" fill="#464646"></path>
  <path d="M76.5549 58.4628H74.2876V71.7705H76.5549V58.4628Z" fill="#464646"></path>
  <path d="M77.2451 58.4628H84.1454V60.4343H81.8782V71.7705H79.6109V60.4343H77.2451V58.4628Z" fill="#464646"></path>
  <path d="M40.5746 12.4277H43.7291V16.6665C43.7291 18.8352 42.5461 20.0181 40.3775 20.0181C38.2088 20.0181 37.0259 18.8352 37.0259 16.6665V9.76616C37.0259 7.59748 38.2088 6.41457 40.3775 6.41457C42.5461 6.41457 43.7291 7.59748 43.7291 9.76616V11.0476H41.659V9.56901C41.659 8.58324 41.1661 8.28752 40.476 8.28752C39.786 8.28752 39.2931 8.58324 39.2931 9.56901V16.7651C39.2931 17.7508 39.786 18.0466 40.476 18.0466C41.1661 18.0466 41.659 17.7508 41.659 16.7651V14.3007H40.6732V12.4277H40.5746Z" fill="#464646"></path>
  <path d="M45.7993 6.51315H48.0666V17.8494H51.7139V19.8209H45.7993V6.51315Z" fill="#464646"></path>
  <path d="M52.3052 9.66758C52.3052 7.49891 53.4881 6.31599 55.6568 6.31599C57.8254 6.31599 59.0083 7.49891 59.0083 9.66758V16.5679C59.0083 18.7366 57.8254 19.9195 55.6568 19.9195C53.4881 19.9195 52.3052 18.7366 52.3052 16.5679V9.66758ZM54.5724 16.7651C54.5724 17.7508 55.0653 18.0466 55.7553 18.0466C56.4454 18.0466 56.9383 17.7508 56.9383 16.7651V9.56901C56.9383 8.58325 56.4454 8.28752 55.7553 8.28752C55.0653 8.28752 54.5724 8.58325 54.5724 9.56901V16.7651Z" fill="#464646"></path>
  <path d="M64.5288 6.51315C66.8947 6.51315 67.8804 7.49891 67.8804 9.56901V10.0619C67.8804 11.442 67.3875 12.3291 66.4018 12.7234C67.5847 13.1177 68.0776 14.1035 68.0776 15.5821V16.6665C68.0776 18.7366 66.8947 19.8209 64.726 19.8209H61.1772V6.51315H64.5288ZM63.4445 8.38609V11.9348H64.3317C65.1203 11.9348 65.7117 11.6391 65.7117 10.5548V9.76616C65.7117 8.7804 65.416 8.38609 64.5288 8.38609H63.4445ZM63.4445 13.8078V17.8494H64.726C65.5146 17.8494 65.9089 17.5537 65.9089 16.5679V15.385C65.9089 14.2021 65.5146 13.8078 64.4303 13.8078H63.4445Z" fill="#464646"></path>
  <path d="M77.0477 19.8209H74.7805L74.3862 17.4551H71.626L71.2317 19.8209H69.1616L71.4289 6.51315H74.6819L77.0477 19.8209ZM71.9217 15.5821H74.0904L73.0061 8.87897L71.9217 15.5821Z" fill="#464646"></path>
  <path d="M78.7236 6.51315H80.8923V17.8494H84.6382V19.8209H78.7236V6.51315Z" fill="#464646"></path>
</svg>
